<mxfile host="app.diagrams.net" agent="Mozilla/5.0 (Windows NT 10.0; Win64; x64) AppleWebKit/537.36 (KHTML, like Gecko) Chrome/141.0.0.0 Safari/537.36" version="28.2.7">
  <diagram name="第 1 页" id="TDCSzV-EDKlU7uQUgwIu">
    <mxGraphModel dx="1426" dy="751" grid="1" gridSize="10" guides="1" tooltips="1" connect="1" arrows="1" fold="1" page="1" pageScale="1" pageWidth="4681" pageHeight="3300" math="0" shadow="0">
      <root>
        <mxCell id="0" />
        <mxCell id="1" parent="0" />
        <mxCell id="rWWLi_Bf3xhAm2NSKVyB-14" style="edgeStyle=orthogonalEdgeStyle;rounded=0;orthogonalLoop=1;jettySize=auto;html=1;exitX=0.5;exitY=1;exitDx=0;exitDy=0;entryX=0.5;entryY=0;entryDx=0;entryDy=0;" edge="1" parent="1" source="rWWLi_Bf3xhAm2NSKVyB-1" target="rWWLi_Bf3xhAm2NSKVyB-4">
          <mxGeometry relative="1" as="geometry" />
        </mxCell>
        <mxCell id="rWWLi_Bf3xhAm2NSKVyB-1" value="触发任务进度处理" style="rounded=0;whiteSpace=wrap;html=1;" vertex="1" parent="1">
          <mxGeometry x="480" y="90" width="190" height="40" as="geometry" />
        </mxCell>
        <mxCell id="rWWLi_Bf3xhAm2NSKVyB-15" style="edgeStyle=orthogonalEdgeStyle;rounded=0;orthogonalLoop=1;jettySize=auto;html=1;exitX=0.5;exitY=1;exitDx=0;exitDy=0;entryX=0.5;entryY=0;entryDx=0;entryDy=0;" edge="1" parent="1" source="rWWLi_Bf3xhAm2NSKVyB-4" target="rWWLi_Bf3xhAm2NSKVyB-5">
          <mxGeometry relative="1" as="geometry" />
        </mxCell>
        <mxCell id="rWWLi_Bf3xhAm2NSKVyB-4" value="获取触发规则的任务模板表" style="rounded=0;whiteSpace=wrap;html=1;" vertex="1" parent="1">
          <mxGeometry x="487.5" y="160" width="175" height="40" as="geometry" />
        </mxCell>
        <mxCell id="rWWLi_Bf3xhAm2NSKVyB-16" style="edgeStyle=orthogonalEdgeStyle;rounded=0;orthogonalLoop=1;jettySize=auto;html=1;exitX=0.5;exitY=1;exitDx=0;exitDy=0;entryX=0.5;entryY=0;entryDx=0;entryDy=0;" edge="1" parent="1" source="rWWLi_Bf3xhAm2NSKVyB-5" target="rWWLi_Bf3xhAm2NSKVyB-8">
          <mxGeometry relative="1" as="geometry" />
        </mxCell>
        <mxCell id="rWWLi_Bf3xhAm2NSKVyB-5" value="从实体对象中过滤已完成最高阶" style="rounded=0;whiteSpace=wrap;html=1;" vertex="1" parent="1">
          <mxGeometry x="487.5" y="230" width="175" height="40" as="geometry" />
        </mxCell>
        <mxCell id="rWWLi_Bf3xhAm2NSKVyB-17" style="edgeStyle=orthogonalEdgeStyle;rounded=0;orthogonalLoop=1;jettySize=auto;html=1;exitX=0.5;exitY=1;exitDx=0;exitDy=0;entryX=0.5;entryY=0;entryDx=0;entryDy=0;" edge="1" parent="1" source="rWWLi_Bf3xhAm2NSKVyB-8" target="rWWLi_Bf3xhAm2NSKVyB-9">
          <mxGeometry relative="1" as="geometry" />
        </mxCell>
        <mxCell id="rWWLi_Bf3xhAm2NSKVyB-24" style="edgeStyle=orthogonalEdgeStyle;rounded=0;orthogonalLoop=1;jettySize=auto;html=1;entryX=0.5;entryY=0;entryDx=0;entryDy=0;" edge="1" parent="1" source="rWWLi_Bf3xhAm2NSKVyB-8" target="rWWLi_Bf3xhAm2NSKVyB-12">
          <mxGeometry relative="1" as="geometry" />
        </mxCell>
        <mxCell id="rWWLi_Bf3xhAm2NSKVyB-8" value="计算任务进度" style="rounded=0;whiteSpace=wrap;html=1;" vertex="1" parent="1">
          <mxGeometry x="502.5" y="300" width="145" height="30" as="geometry" />
        </mxCell>
        <mxCell id="rWWLi_Bf3xhAm2NSKVyB-18" style="edgeStyle=orthogonalEdgeStyle;rounded=0;orthogonalLoop=1;jettySize=auto;html=1;exitX=0.5;exitY=1;exitDx=0;exitDy=0;entryX=0.5;entryY=0;entryDx=0;entryDy=0;" edge="1" parent="1" source="rWWLi_Bf3xhAm2NSKVyB-9" target="rWWLi_Bf3xhAm2NSKVyB-10">
          <mxGeometry relative="1" as="geometry" />
        </mxCell>
        <mxCell id="rWWLi_Bf3xhAm2NSKVyB-23" style="edgeStyle=orthogonalEdgeStyle;rounded=0;orthogonalLoop=1;jettySize=auto;html=1;exitX=0;exitY=0.5;exitDx=0;exitDy=0;entryX=0;entryY=0.5;entryDx=0;entryDy=0;" edge="1" parent="1" source="rWWLi_Bf3xhAm2NSKVyB-9" target="rWWLi_Bf3xhAm2NSKVyB-8">
          <mxGeometry relative="1" as="geometry">
            <Array as="points">
              <mxPoint x="450" y="400" />
              <mxPoint x="450" y="315" />
            </Array>
          </mxGeometry>
        </mxCell>
        <mxCell id="rWWLi_Bf3xhAm2NSKVyB-9" value="任务进度是否高于当前" style="rhombus;whiteSpace=wrap;html=1;" vertex="1" parent="1">
          <mxGeometry x="507.5" y="370" width="135" height="60" as="geometry" />
        </mxCell>
        <mxCell id="rWWLi_Bf3xhAm2NSKVyB-19" style="edgeStyle=orthogonalEdgeStyle;rounded=0;orthogonalLoop=1;jettySize=auto;html=1;exitX=0.5;exitY=1;exitDx=0;exitDy=0;" edge="1" parent="1" source="rWWLi_Bf3xhAm2NSKVyB-10" target="rWWLi_Bf3xhAm2NSKVyB-11">
          <mxGeometry relative="1" as="geometry" />
        </mxCell>
        <mxCell id="rWWLi_Bf3xhAm2NSKVyB-10" value="更新等级" style="rounded=0;whiteSpace=wrap;html=1;" vertex="1" parent="1">
          <mxGeometry x="527.5" y="460" width="95" height="30" as="geometry" />
        </mxCell>
        <mxCell id="rWWLi_Bf3xhAm2NSKVyB-21" style="edgeStyle=orthogonalEdgeStyle;rounded=0;orthogonalLoop=1;jettySize=auto;html=1;entryX=0;entryY=0.5;entryDx=0;entryDy=0;" edge="1" parent="1" source="rWWLi_Bf3xhAm2NSKVyB-11" target="rWWLi_Bf3xhAm2NSKVyB-8">
          <mxGeometry relative="1" as="geometry">
            <Array as="points">
              <mxPoint x="450" y="525" />
              <mxPoint x="450" y="315" />
            </Array>
          </mxGeometry>
        </mxCell>
        <mxCell id="rWWLi_Bf3xhAm2NSKVyB-11" value="通知客户端变动" style="rounded=0;whiteSpace=wrap;html=1;" vertex="1" parent="1">
          <mxGeometry x="527.5" y="510" width="95" height="30" as="geometry" />
        </mxCell>
        <mxCell id="rWWLi_Bf3xhAm2NSKVyB-12" value="循环结束" style="rounded=0;whiteSpace=wrap;html=1;" vertex="1" parent="1">
          <mxGeometry x="720" y="385" width="90" height="30" as="geometry" />
        </mxCell>
        <mxCell id="rWWLi_Bf3xhAm2NSKVyB-25" value="是" style="text;html=1;whiteSpace=wrap;strokeColor=none;fillColor=none;align=center;verticalAlign=middle;rounded=0;" vertex="1" parent="1">
          <mxGeometry x="562.5" y="430" width="60" height="30" as="geometry" />
        </mxCell>
        <mxCell id="rWWLi_Bf3xhAm2NSKVyB-26" value="否" style="text;html=1;whiteSpace=wrap;strokeColor=none;fillColor=none;align=center;verticalAlign=middle;rounded=0;" vertex="1" parent="1">
          <mxGeometry x="460" y="370" width="60" height="30" as="geometry" />
        </mxCell>
      </root>
    </mxGraphModel>
  </diagram>
</mxfile>
